<svg xmlns="http://www.w3.org/2000/svg" width="8.872" height="8.872" viewBox="0 0 12.872 12.872">
  <path id="D" d="M846.937,1662.223h0a7.561,7.561,0,0,1,1.386-.132,8.634,8.634,0,0,1,1.936.242,5.317,5.317,0,0,1-2.53,3.564A18.853,18.853,0,0,0,846.937,1662.223Zm-5.083,3.432h0a7.888,7.888,0,0,1,4.049-3.168,17.466,17.466,0,0,1,.792,3.895,4.879,4.879,0,0,1-1.694.264A5.659,5.659,0,0,1,841.855,1665.655Zm4.731-4.467h0c-.132-.286-.242-.594-.374-.88a13.915,13.915,0,0,0,3.213-2.046,5.487,5.487,0,0,1,.946,3.014,8.485,8.485,0,0,0-2.046-.286A9.794,9.794,0,0,0,846.585,1661.189Zm2.134-3.763h0a11.9,11.9,0,0,1-2.97,1.892,21.238,21.238,0,0,0-2.134-3.19,4.907,4.907,0,0,1,1.386-.2A5.374,5.374,0,0,1,848.72,1657.426Zm-3.961,2.288h0a12.553,12.553,0,0,1-4.357.77h-.726a5.512,5.512,0,0,1,2.86-3.961A17.719,17.719,0,0,1,844.759,1659.715Zm.242-4.863h0a6.436,6.436,0,1,0,6.447,6.425A6.418,6.418,0,0,0,845,1654.852Zm.55,6.623h0a8.693,8.693,0,0,0-4.489,3.432,5.019,5.019,0,0,1-1.408-3.367c.264,0,.506.044.748.044a14.122,14.122,0,0,0,4.819-.88A5.8,5.8,0,0,0,845.551,1661.475Z" transform="translate(-838.576 -1654.852)" fill="#fff"/>
</svg>
