<svg xmlns="http://www.w3.org/2000/svg" width="8.522" height="8.712" viewBox="0 0 15.522 10.712">
  <path id="L" d="M720.954,1661.2h0a2.348,2.348,0,0,0,1.817-.69,3.949,3.949,0,0,1-1.748-.184,1.919,1.919,0,0,0,1.7-1.035,2.749,2.749,0,0,1-1.863.207,1.326,1.326,0,0,0-.069-.322,3.353,3.353,0,0,0-3.288-2.6c.138-.046.253-.092.391-.138.115-.046,1.058-.207.943-.529-.115-.3-1.288.207-1.541.276.3-.115.8-.276.828-.621a1.988,1.988,0,0,0-1.2.6.755.755,0,0,0,.207-.506,7.491,7.491,0,0,0-2.392,3.771,7.586,7.586,0,0,0-1.2-.966,36.209,36.209,0,0,0-3.978-1.724,2.052,2.052,0,0,0,1.311,1.932,3.106,3.106,0,0,0-.943.138c.115.69.575,1.288,1.748,1.518a1.626,1.626,0,0,0-1.081.414,1.838,1.838,0,0,0,1.932.966c-1.2.529-.483,1.495.46,1.311a4.138,4.138,0,0,1-5.749.184C711.181,1668.54,719.666,1666.333,720.954,1661.2Z" transform="translate(-707.249 -1655.571)" fill="#fff"/>
</svg>
