<svg xmlns="http://www.w3.org/2000/svg" width="4.622px" height="4.703px" viewBox="0 0 15.622 9.703">
  <path id="E" d="M773.12,1663.037h0a1.189,1.189,0,0,1-.638,1.21,2.045,2.045,0,0,1-.99.176h-2.068v-2.574h2.112a1.885,1.885,0,0,1,.946.154A1.036,1.036,0,0,1,773.12,1663.037Zm7.327-2.508h0a1.806,1.806,0,0,1,.462,1.122h-3.124a2.319,2.319,0,0,1,.484-1.078,1.384,1.384,0,0,1,1.1-.4A1.758,1.758,0,0,1,780.447,1660.529Zm-13.246-4.115h0v9.7h4.357a8.634,8.634,0,0,0,1.386-.11,3.286,3.286,0,0,0,1.078-.528,2.545,2.545,0,0,0,.7-.748,2.973,2.973,0,0,0,.44-1.54,2.723,2.723,0,0,0-.4-1.43,2.318,2.318,0,0,0-1.1-.88,1.648,1.648,0,0,0,.7-.55,2.014,2.014,0,0,0,.484-1.43,2.468,2.468,0,0,0-.44-1.452,2.941,2.941,0,0,0-2.53-1.034Zm9.681,3.213h0a3.829,3.829,0,0,0-.968,2.772,3.457,3.457,0,0,0,1.034,2.816,3.951,3.951,0,0,0,2.464.814,3.339,3.339,0,0,0,2.618-.99,2.259,2.259,0,0,0,.66-1.254h-1.848a.975.975,0,0,1-.374.462,1.783,1.783,0,0,1-2,.044,1.589,1.589,0,0,1-.726-1.452h5.083a10.018,10.018,0,0,0-.088-1.364,3.985,3.985,0,0,0-.55-1.452,3.118,3.118,0,0,0-1.188-1.034,4.293,4.293,0,0,0-1.628-.308A3.3,3.3,0,0,0,776.883,1659.627Zm.506-2.816h0v.99h3.873v-.99Zm-4.863,3.169h0a2.055,2.055,0,0,1-1.034.242h-2.068v-2.134h1.826a3.99,3.99,0,0,1,1.144.154.877.877,0,0,1,.528.9A.893.893,0,0,1,772.526,1659.979Z" transform="translate(-767.201 -1656.414)" fill="#fff"/>
</svg>
